PathFileType	3	(X/Y/Z)	D:\minhoCalibration\240510\subject5_KPNP\preferred\preferred07.trc
DataRate	CameraRate	NumFrames	NumMarkers	Units	OrigDataRate	OrigDataStartFrame	OrigNumFrames
200.0	200.0	30	10	mm	200.0	220	131	
Frame#	Time	Left_Ankle_Outer1			Left_Ankle_Inner1			Left_Knee_Outer1			Left_Knee_Inner1			Left_Wrist1			Right_Wrist1			Right_Knee_Inner1			Right_Knee_Outer1			Right_Ankle_Inner1			Right_Ankle_Outer1			
		X1	Y1	Z1	X2	Y2	Z2	X3	Y3	Z3	X4	Y4	Z4	X5	Y5	Z5	X6	Y6	Z6	X7	Y7	Z7	X8	Y8	Z8	X9	Y9	Z9	X10	Y10	Z10	
220	1.09	-327.15167	74.42585	-656.7182	-373.23254	87.260963	-637.13538	-197.96585	526.96155	-549.16644	-288.59048	515.80005	-525.09222	-164.52812	1001.6443	-711.11261	-487.26382	1057.7931	-756.04272	-631.33551	560.43372	-555.6145	-697.25708	617.72986	-592.39777	-500.11075	295.50876	-905.40308	-552.81909	360.53094	-955.9162
221	1.095	-327.03152	74.568642	-656.94507	-372.93091	87.683311	-637.05853	-195.7282	527.04962	-550.83008	-286.48599	515.73175	-525.78741	-161.98174	1001.7856	-711.53424	-484.61441	1060.8763	-752.37708	-631.22479	569.34937	-537.18451	-697.14532	627.35614	-573.11182	-506.39987	304.32602	-889.44873	-558.55811	370.30737	-939.06903
222	1.1	-326.70584	74.797386	-657.3349	-372.44632	87.844749	-637.86615	-194.9324	526.67108	-552.1698	-284.41498	515.31622	-526.94922	-159.56276	1001.8879	-712.24524	-483.19794	1064.9226	-741.92188	-630.26343	578.85522	-518.9884	-696.8172	637.23096	-553.56445	-512.44067	313.27646	-873.76324	-564.2395	380.28519	-922.22974
223	1.105	-326.45276	75.001343	-657.52185	-372.04523	88.300499	-637.89746	-192.62968	526.60638	-554.27039	-282.33411	515.51764	-527.68176	-156.81592	1002.5492	-712.92749	-481.23318	1068.4215	-734.91089	-629.32867	588.56378	-499.89539	-695.64014	647.60675	-534.27246	-518.76788	322.58566	-858.11322	-570.34521	390.73459	-905.27533
224	1.11	-326.1965	75.30732	-657.82715	-371.64279	88.708397	-637.86908	-190.97697	526.73792	-556.14874	-280.24384	515.73505	-528.55347	-155.14241	1002.662	-714.35309	-476.96487	1071.6793	-730.29083	-627.46387	598.44647	-481.93375	-693.95636	658.16254	-514.78979	-525.3822	332.32217	-842.50769	-576.63177	401.50928	-888.43054
225	1.115	-325.78989	75.630615	-658.22607	-371.17233	89.170547	-637.97888	-189.19572	526.96307	-558.1474	-278.01303	516.23718	-529.09503	-153.27795	1003.1067	-715.71259	-477.17587	1075.7423	-718.90771	-625.08746	608.58325	-463.45963	-691.74268	668.82532	-495.44504	-531.97839	342.50757	-827.22449	-583.22314	412.73758	-871.69299
226	1.12	-325.77301	75.831924	-658.15576	-370.23813	89.720917	-637.02069	-187.40051	527.15369	-560.23901	-275.37473	516.39771	-530.47491	-151.65654	1003.6232	-717.22034	-475.50983	1079.4717	-708.96655	-622.05933	619.09222	-445.26633	-689.04425	680.06006	-475.85895	-538.67468	353.18298	-812.23041	-590.16522	424.35223	-855.02246
227	1.125	-324.73093	76.532837	-659.14545	-370.23413	90.548485	-637.06195	-185.61449	527.46655	-562.43463	-273.27826	517.41089	-530.48615	-150.12622	1004.2062	-718.84467	-470.95721	1083.3494	-705.40302	-618.55072	629.71582	-426.69162	-685.55359	691.40271	-456.49622	-545.62848	364.35727	-797.31256	-597.32104	436.40326	-838.50049
228	1.13	-324.78247	76.946083	-658.83618	-369.52502	90.416702	-636.66956	-183.69054	527.776	-564.79187	-270.99744	517.36072	-531.57849	-148.9039	1004.7651	-720.56592	-466.25717	1088.0251	-699.51593	-614.47162	640.48932	-408.73431	-681.07629	702.86084	-437.94434	-552.76447	376.10223	-782.59857	-604.7085	448.92496	-822.00195
229	1.135	-323.93832	77.664474	-659.2926	-368.74194	91.939095	-636.68677	-181.6817	528.17688	-567.23322	-268.22992	518.01221	-532.46667	-147.80016	1005.3259	-722.55334	-466.08533	1091.6279	-689.98114	-609.77057	651.26727	-391.54788	-676.1557	714.43536	-419.39807	-560.1001	388.18097	-767.96375	-612.29749	461.85638	-805.45758
230	1.14	-323.64059	78.360298	-659.22357	-367.08514	91.948746	-637.39453	-180.14987	528.37628	-569.4538	-265.86237	518.53387	-533.21686	-146.95201	1005.79	-724.65576	-463.29822	1095.7841	-682.63953	-604.97601	662.39532	-373.44699	-671.05029	726.43762	-400.29871	-567.5412	400.78903	-753.56647	-619.77661	475.35437	-789.15887
231	1.145	-322.95749	78.541229	-659.9718	-367.06357	92.645599	-637.06543	-177.9817	528.82312	-571.91461	-263.44128	518.81635	-533.94312	-146.33493	1006.0984	-726.92114	-460.39014	1099.9894	-674.94849	-599.34515	673.45111	-356.42355	-665.19751	738.68256	-381.52667	-575.34033	413.85345	-739.12677	-627.30591	489.19016	-772.67035
232	1.15	-322.59305	79.217865	-660.16449	-366.62885	93.234856	-637.22809	-175.85745	529.11053	-574.36792	-260.78391	519.39209	-534.6134	-146.28992	1006.1375	-729.23267	-457.74713	1103.3722	-668.49756	-593.17914	684.45251	-339.54388	-658.61383	750.94269	-363.28766	-583.04749	427.03687	-724.67975	-634.75415	503.43011	-756.17523
233	1.155	-322.54935	79.634689	-660.42963	-366.07751	94.178894	-637.32996	-173.85808	529.58136	-576.60883	-258.03403	519.81366	-535.3894	-146.0002	1006.1606	-732.03387	-454.35754	1108.5355	-661.21277	-586.54913	695.46625	-323.37555	-651.20892	763.19312	-345.8335	-590.9043	440.52682	-710.05859	-642.19305	518.10388	-739.62543
234	1.16	-322.37955	80.44706	-660.52887	-365.90219	95.891258	-636.71973	-171.7742	529.81555	-579.03772	-255.53188	520.51532	-534.81079	-146.38757	1005.9608	-734.7879	-451.23633	1113.4852	-654.69812	-579.51538	706.54236	-307.20511	-643.38086	775.79761	-328.14679	-598.77832	454.22165	-695.89722	-649.42773	533.06512	-723.00763
235	1.165	-322.57645	80.994072	-660.46875	-365.78677	96.417587	-636.02081	-170.21521	530.18256	-581.37048	-252.22862	520.5166	-536.4552	-146.70088	1005.7583	-737.85474	-448.02426	1118.0188	-649.22253	-571.8147	717.64056	-291.55795	-635.14246	788.4057	-310.70306	-607.06097	468.38397	-680.77136	-656.66992	548.44037	-706.41699
236	1.17	-323.36453	81.432915	-659.94019	-365.70969	97.74897	-634.8924	-168.37001	530.3136	-583.86035	-249.47058	520.94562	-536.53479	-147.80133	1005.2018	-740.83093	-444.1149	1122.299	-641.2049	-563.66016	728.6449	-276.36783	-625.66974	801.021	-294.12158	-615.3548	482.91513	-666.13306	-663.84387	564.28845	-689.62976
237	1.175	-323.66632	82.12928	-659.96497	-365.87546	98.091774	-635.09723	-167.25642	530.3125	-586.04919	-246.49789	521.36652	-536.49438	-149.24599	1004.5416	-744.03339	-439.5502	1126.4725	-634.95862	-554.9762	739.67291	-261.23285	-615.86334	813.6582	-277.26465	-623.78784	497.73267	-651.39087	-671.0885	580.59857	-673.02258
238	1.18	-324.10968	82.954033	-659.89886	-366.14914	99.098541	-633.97247	-165.39969	530.77832	-588.34686	-243.28131	521.81873	-536.55432	-150.88416	1003.9299	-747.1358	-431.87854	1131.5613	-624.20837	-545.49023	750.36188	-246.61996	-604.82214	826.12256	-261.27698	-632.30383	512.95978	-636.48682	-678.33325	597.07428	-656.14722
239	1.185	-325.19235	83.386742	-659.2901	-366.96011	99.732079	-632.54834	-164.34192	530.72906	-590.19702	-240.06453	522.15979	-536.42377	-152.51537	1003.4767	-750.32996	-428.14136	1135.1986	-618.87274	-535.70886	761.29535	-233.29167	-593.30945	838.28174	-246.03812	-640.91174	528.45917	-621.42267	-685.5058	613.78339	-638.92657
240	1.19	-326.60263	83.807251	-658.26147	-367.37012	101.2532	-630.62921	-162.98042	531.01135	-592.13422	-237.14549	522.30762	-535.88013	-155.8878	1001.5543	-754.05652	-423.25388	1139.1326	-612.65051	-525.3374	771.31506	-219.76083	-580.76013	850.09814	-231.83411	-650.07367	544.04486	-605.82281	-692.65814	630.98419	-621.58508
241	1.195	-327.74234	84.536827	-657.59052	-367.88736	101.75397	-630.10181	-161.68356	531.22437	-593.83893	-234.31017	522.55475	-535.1366	-158.93788	1000.2957	-757.40857	-418.63699	1143.307	-605.79901	-514.83612	781.6723	-207.30368	-568.05841	861.85968	-217.75267	-658.66162	559.95776	-590.38031	-699.6665	648.31616	-603.88458
242	1.2	-328.7485	85.191833	-657.11963	-368.58377	102.95217	-628.0119	-160.36665	531.45325	-595.27594	-231.17177	522.68762	-534.61194	-162.17082	998.88586	-760.84857	-413.69043	1147.0055	-599.97247	-503.62302	791.59662	-195.28462	-555.12506	873.59003	-204.07864	-668.29395	576.30493	-573.74274	-706.47687	665.81885	-585.77032
243	1.205	-330.12271	85.914246	-655.75525	-369.56244	103.53747	-626.08325	-159.31512	531.50842	-596.46259	-228.05693	522.72119	-533.974	-165.82477	997.4447	-764.03589	-408.05118	1150.3474	-595.33667	-491.95636	801.29919	-183.47719	-541.12952	884.87823	-191.24869	-677.33258	592.60681	-557.20251	-713.07306	683.56433	-567.20038
244	1.21	-331.37506	86.568932	-654.71198	-369.89566	104.29073	-625.25861	-158.12143	531.755	-597.70984	-225.25682	522.86542	-533.05511	-169.72841	996.02118	-767.10272	-402.61179	1153.873	-589.94165	-480.15607	810.50482	-173.11096	-526.22632	895.51617	-179.62445	-686.86804	609.17157	-539.41595	-719.52991	701.52362	-548.08508
245	1.215	-332.75085	86.835419	-653.47687	-370.95026	104.98621	-622.62769	-157.31148	531.87549	-598.86914	-222.31284	523.46069	-531.3017	-174.30783	993.95221	-770.53888	-396.91592	1157.345	-585.25464	-467.9021	819.35681	-163.15367	-511.31052	906.02692	-168.07544	-696.51862	626.26282	-521.25122	-725.75116	719.63788	-528.40033
246	1.22	-333.89081	87.439491	-652.4118	-371.18027	105.74088	-621.55072	-156.19974	532.19617	-600.28455	-219.35336	523.40582	-530.8512	-179.08691	992.32959	-772.77728	-391.47638	1160.7904	-580.47583	-455.44855	827.83636	-153.79178	-495.59653	915.78931	-157.97148	-705.64929	643.409	-501.95663	-731.69635	737.79565	-507.78079
247	1.225	-335.19196	87.880722	-651.46222	-372.22937	106.4875	-619.36096	-155.73378	532.15955	-601.40436	-216.71144	523.35767	-530.42828	-184.24669	990.04413	-775.2348	-386.0816	1164.0244	-576.15527	-442.65878	835.74316	-145.02013	-479.63574	925.11121	-148.55734	-714.63538	660.76074	-481.82858	-737.40759	756.18365	-486.63794
248	1.23	-336.56653	87.976952	-650.39667	-373.00516	106.984	-617.17786	-155.22205	532.32941	-602.78723	-214.26576	523.3468	-530.11371	-188.93211	988.7937	-777.14368	-381.18463	1167.1321	-571.75659	-430.1799	843.38031	-137.29877	-463.43777	933.88318	-140.01979	-723.25598	678.25165	-460.60049	-742.82458	774.66675	-464.82132
249	1.235	-337.99576	88.041183	-649.34528	-374.06125	107.33503	-615.82465	-155.26024	532.33972	-604.02771	-212.38196	523.21063	-529.73792	-193.86485	986.96942	-778.92432	-375.05103	1169.5546	-568.3916	-417.47406	850.50201	-129.77391	-447.06851	942.24579	-132.19781	-731.54523	696.08087	-438.06091	-747.81915	793.22491	-442.10635
